<svg xmlns="http://www.w3.org/2000/svg" width="512" height="512" viewBox="0 0 512 512" fill="none">
  <rect width="512" height="512" rx="112" fill="#EEF2FF"/>
  <path d="M144 208C144 175.967 169.967 150 202 150H310C342.033 150 368 175.967 368 208V304C368 336.033 342.033 362 310 362H202C169.967 362 144 336.033 144 304V208Z" fill="#4F46E5"/>
  <path d="M196 228C196 216.954 204.954 208 216 208H296C307.046 208 316 216.954 316 228V244H196V228Z" fill="white" fill-opacity=".94"/>
  <path d="M196 264H316V284C316 295.046 307.046 304 296 304H216C204.954 304 196 295.046 196 284V264Z" fill="white" fill-opacity=".94"/>
</svg>

